{
	"patcher" : 	{
		"fileversion" : 1,
		"appversion" : 		{
			"major" : 8,
			"minor" : 5,
			"revision" : 7,
			"architecture" : "x64",
			"modernui" : 1
		}
,
		"classnamespace" : "box",
		"rect" : [ 34.0, 87.0, 640.0, 779.0 ],
		"bglocked" : 0,
		"openinpresentation" : 0,
		"default_fontsize" : 12.0,
		"default_fontface" : 0,
		"default_fontname" : "Arial",
		"gridonopen" : 1,
		"gridsize" : [ 15.0, 15.0 ],
		"gridsnaponopen" : 1,
		"objectsnaponopen" : 1,
		"statusbarvisible" : 2,
		"toolbarvisible" : 1,
		"lefttoolbarpinned" : 0,
		"toptoolbarpinned" : 0,
		"righttoolbarpinned" : 0,
		"bottomtoolbarpinned" : 0,
		"toolbars_unpinned_last_save" : 0,
		"tallnewobj" : 0,
		"boxanimatetime" : 200,
		"enablehscroll" : 1,
		"enablevscroll" : 1,
		"devicewidth" : 0.0,
		"description" : "",
		"digest" : "",
		"tags" : "",
		"style" : "",
		"subpatcher_template" : "",
		"assistshowspatchername" : 0,
		"boxes" : [ 			{
				"box" : 				{
					"id" : "obj-4",
					"maxclass" : "ezdac~",
					"numinlets" : 2,
					"numoutlets" : 0,
					"patching_rect" : [ 288.0, 156.0, 45.0, 45.0 ]
				}

			}
, 			{
				"box" : 				{
					"id" : "obj-27",
					"maxclass" : "newobj",
					"numinlets" : 3,
					"numoutlets" : 3,
					"outlettype" : [ "bang", "bang", "" ],
					"patching_rect" : [ 218.0, 336.0, 64.0, 22.0 ],
					"text" : "sel 97 100"
				}

			}
, 			{
				"box" : 				{
					"id" : "obj-16",
					"maxclass" : "newobj",
					"numinlets" : 3,
					"numoutlets" : 2,
					"outlettype" : [ "float", "float" ],
					"patching_rect" : [ 37.0, 336.0, 115.0, 22.0 ],
					"text" : "makenote 127 1000"
				}

			}
, 			{
				"box" : 				{
					"id" : "obj-5",
					"maxclass" : "number",
					"numinlets" : 1,
					"numoutlets" : 2,
					"outlettype" : [ "", "bang" ],
					"parameter_enable" : 0,
					"patching_rect" : [ 218.0, 280.0, 50.0, 22.0 ]
				}

			}
, 			{
				"box" : 				{
					"id" : "obj-2",
					"maxclass" : "newobj",
					"numinlets" : 0,
					"numoutlets" : 4,
					"outlettype" : [ "int", "int", "int", "int" ],
					"patching_rect" : [ 219.0, 175.0, 50.5, 22.0 ],
					"text" : "key"
				}

			}
, 			{
				"box" : 				{
					"autosave" : 1,
					"id" : "obj-1",
					"inletInfo" : 					{
						"IOInfo" : [  ]
					}
,
					"maxclass" : "newobj",
					"numinlets" : 1,
					"numoutlets" : 2,
					"outletInfo" : 					{
						"IOInfo" : [ 							{
								"type" : "signal",
								"index" : 1,
								"tag" : "out1",
								"comment" : ""
							}
 ]
					}
,
					"outlettype" : [ "signal", "list" ],
					"patcher" : 					{
						"fileversion" : 1,
						"appversion" : 						{
							"major" : 8,
							"minor" : 5,
							"revision" : 7,
							"architecture" : "x64",
							"modernui" : 1
						}
,
						"classnamespace" : "rnbo",
						"rect" : [ 460.0, 202.0, 946.0, 779.0 ],
						"bglocked" : 0,
						"openinpresentation" : 0,
						"default_fontsize" : 12.0,
						"default_fontface" : 0,
						"default_fontname" : "Lato",
						"gridonopen" : 1,
						"gridsize" : [ 15.0, 15.0 ],
						"gridsnaponopen" : 1,
						"objectsnaponopen" : 1,
						"statusbarvisible" : 2,
						"toolbarvisible" : 1,
						"lefttoolbarpinned" : 0,
						"toptoolbarpinned" : 0,
						"righttoolbarpinned" : 0,
						"bottomtoolbarpinned" : 0,
						"toolbars_unpinned_last_save" : 0,
						"tallnewobj" : 0,
						"boxanimatetime" : 200,
						"enablehscroll" : 1,
						"enablevscroll" : 1,
						"devicewidth" : 0.0,
						"description" : "",
						"digest" : "",
						"tags" : "",
						"style" : "",
						"subpatcher_template" : "",
						"assistshowspatchername" : 0,
						"title" : "autoquantize",
						"boxes" : [ 							{
								"box" : 								{
									"id" : "obj-196",
									"maxclass" : "message",
									"numinlets" : 2,
									"numoutlets" : 1,
									"outlettype" : [ "" ],
									"patching_rect" : [ 429.0, 235.0, 29.5, 23.0 ],
									"rnbo_classname" : "message",
									"rnbo_extra_attributes" : 									{
										"text" : ""
									}
,
									"rnbo_serial" : 1,
									"rnbo_uniqueid" : "message_obj-196",
									"text" : "1"
								}

							}
, 							{
								"box" : 								{
									"format" : 0,
									"id" : "obj-176",
									"maxclass" : "number",
									"numinlets" : 1,
									"numoutlets" : 1,
									"outlettype" : [ "" ],
									"parameter_enable" : 0,
									"patching_rect" : [ 172.0, 252.0, 50.0, 23.0 ],
									"rnbo_classname" : "number",
									"rnbo_extra_attributes" : 									{
										"minimum" : "<none>",
										"maximum" : "<none>",
										"initialFormat" : "integer",
										"order" : "",
										"preset" : 0
									}
,
									"rnbo_serial" : 1,
									"rnbo_uniqueid" : "number_obj-176"
								}

							}
, 							{
								"box" : 								{
									"id" : "obj-165",
									"maxclass" : "message",
									"numinlets" : 2,
									"numoutlets" : 1,
									"outlettype" : [ "" ],
									"patching_rect" : [ 155.0, 321.0, 29.5, 23.0 ],
									"rnbo_classname" : "message",
									"rnbo_extra_attributes" : 									{
										"text" : ""
									}
,
									"rnbo_serial" : 2,
									"rnbo_uniqueid" : "message_obj-165",
									"text" : "0"
								}

							}
, 							{
								"box" : 								{
									"id" : "obj-161",
									"maxclass" : "newobj",
									"numinlets" : 1,
									"numoutlets" : 2,
									"outlettype" : [ "", "" ],
									"patching_rect" : [ 157.0, 191.0, 32.0, 23.0 ],
									"rnbo_classname" : "t",
									"rnbo_serial" : 1,
									"rnbo_uniqueid" : "t_obj-161",
									"rnboinfo" : 									{
										"needsInstanceInfo" : 1,
										"argnames" : 										{
											"out1" : 											{
												"attrOrProp" : 1,
												"digest" : "Output order 2 (bang).",
												"defaultarg" : 1,
												"isalias" : 0,
												"aliases" : [  ],
												"attachable" : 0,
												"isparam" : 0,
												"deprecated" : 0,
												"outlet" : 1,
												"type" : "bang"
											}
,
											"out2" : 											{
												"attrOrProp" : 1,
												"digest" : "Output order 1 (bang).",
												"defaultarg" : 2,
												"isalias" : 0,
												"aliases" : [  ],
												"attachable" : 0,
												"isparam" : 0,
												"deprecated" : 0,
												"outlet" : 1,
												"type" : "bang"
											}
,
											"triggers" : 											{
												"attrOrProp" : 2,
												"digest" : "The number of arguments determines the number of outlets. \t\t\t\t\t\tEach outlet sends out either a whole number, float, bang or list, \t\t\t\t\t\tas identified by symbol arguments (i, f, b, l). \t\t\t\t\t\tIf there are no arguments, there are two outlets, both of which send a float.",
												"defaultarg" : 1,
												"isalias" : 0,
												"aliases" : [  ],
												"settable" : 1,
												"attachable" : 0,
												"isparam" : 0,
												"deprecated" : 0,
												"type" : "list"
											}

										}
,
										"inputs" : [ 											{
												"name" : "input",
												"type" : [ "bang", "number", "list" ],
												"digest" : "input to distribute",
												"hot" : 1,
												"docked" : 0
											}
 ],
										"outputs" : [ 											{
												"name" : "out1",
												"type" : "bang",
												"digest" : "Output order 2 (bang).",
												"defaultarg" : 1,
												"docked" : 0
											}
, 											{
												"name" : "out2",
												"type" : "bang",
												"digest" : "Output order 1 (bang).",
												"defaultarg" : 2,
												"docked" : 0
											}
 ],
										"helpname" : "trigger",
										"aliasOf" : "trigger",
										"classname" : "t",
										"operator" : 0,
										"versionId" : -1133428571,
										"changesPatcherIO" : 0
									}
,
									"text" : "t b b"
								}

							}
, 							{
								"box" : 								{
									"id" : "obj-155",
									"maxclass" : "newobj",
									"numinlets" : 2,
									"numoutlets" : 1,
									"outlettype" : [ "" ],
									"patching_rect" : [ 155.0, 291.0, 36.0, 23.0 ],
									"rnbo_classname" : "delay",
									"rnbo_serial" : 1,
									"rnbo_uniqueid" : "delay_obj-155",
									"text" : "delay"
								}

							}
, 							{
								"box" : 								{
									"format" : 0,
									"id" : "obj-190",
									"maxclass" : "number",
									"numinlets" : 1,
									"numoutlets" : 1,
									"outlettype" : [ "" ],
									"parameter_enable" : 0,
									"patching_rect" : [ 454.5, 414.0, 50.0, 23.0 ],
									"rnbo_classname" : "number",
									"rnbo_extra_attributes" : 									{
										"minimum" : "<none>",
										"maximum" : "<none>",
										"initialFormat" : "integer",
										"order" : "",
										"preset" : 0
									}
,
									"rnbo_serial" : 2,
									"rnbo_uniqueid" : "number_obj-190"
								}

							}
, 							{
								"box" : 								{
									"id" : "obj-179",
									"maxclass" : "newobj",
									"numinlets" : 2,
									"numoutlets" : 1,
									"outlettype" : [ "" ],
									"patching_rect" : [ 155.0, 380.0, 31.0, 23.0 ],
									"rnbo_classname" : "gate",
									"rnbo_extra_attributes" : 									{
										"outputs" : 1.0
									}
,
									"rnbo_serial" : 1,
									"rnbo_uniqueid" : "gate_obj-179",
									"rnboinfo" : 									{
										"needsInstanceInfo" : 1,
										"argnames" : 										{
											"onoff" : 											{
												"attrOrProp" : 1,
												"digest" : "0 Closes gate, non-zero opens the corresponding gate outlet",
												"defaultarg" : 2,
												"isalias" : 0,
												"aliases" : [  ],
												"settable" : 1,
												"attachable" : 0,
												"isparam" : 0,
												"deprecated" : 0,
												"inlet" : 1,
												"type" : "number",
												"defaultValue" : "0"
											}
,
											"outputs" : 											{
												"attrOrProp" : 2,
												"digest" : "Number of outlets",
												"defaultarg" : 1,
												"isalias" : 0,
												"aliases" : [  ],
												"settable" : 1,
												"attachable" : 0,
												"isparam" : 0,
												"deprecated" : 0,
												"type" : "number",
												"defaultValue" : "1"
											}

										}
,
										"inputs" : [ 											{
												"name" : "onoff",
												"type" : "number",
												"digest" : "0 Closes gate, non-zero opens the corresponding gate outlet",
												"defaultarg" : 2,
												"docked" : 0
											}
, 											{
												"name" : "input",
												"type" : [ "bang", "number", "list" ],
												"digest" : "Incoming gated message",
												"hot" : 1,
												"docked" : 0
											}
 ],
										"outputs" : [ 											{
												"name" : "out1",
												"type" : [ "bang", "number", "list" ],
												"digest" : "Gated Output 1",
												"docked" : 0
											}
 ],
										"helpname" : "gate",
										"aliasOf" : "gate",
										"classname" : "gate",
										"operator" : 0,
										"versionId" : 1220277655,
										"changesPatcherIO" : 0
									}
,
									"text" : "gate"
								}

							}
, 							{
								"box" : 								{
									"format" : 0,
									"id" : "obj-174",
									"maxclass" : "number",
									"numinlets" : 1,
									"numoutlets" : 1,
									"outlettype" : [ "" ],
									"parameter_enable" : 0,
									"patching_rect" : [ 391.0, 364.278571428571468, 50.0, 23.0 ],
									"rnbo_classname" : "number",
									"rnbo_extra_attributes" : 									{
										"minimum" : "<none>",
										"maximum" : "<none>",
										"initialFormat" : "integer",
										"order" : "",
										"preset" : 0
									}
,
									"rnbo_serial" : 3,
									"rnbo_uniqueid" : "number_obj-174"
								}

							}
, 							{
								"box" : 								{
									"id" : "obj-171",
									"maxclass" : "newobj",
									"numinlets" : 2,
									"numoutlets" : 1,
									"outlettype" : [ "" ],
									"patching_rect" : [ 454.5, 364.278571428571468, 29.5, 23.0 ],
									"rnbo_classname" : "/",
									"rnbo_extra_attributes" : 									{
										"hot" : 0
									}
,
									"rnbo_serial" : 1,
									"rnbo_uniqueid" : "/_obj-171",
									"text" : "/ 4"
								}

							}
, 							{
								"box" : 								{
									"id" : "obj-167",
									"inc" : 1.072,
									"interp" : 0,
									"maxclass" : "gain~",
									"multichannelvariant" : 0,
									"numinlets" : 1,
									"numoutlets" : 2,
									"outlettype" : [ "signal", "" ],
									"parameter_enable" : 0,
									"patching_rect" : [ 370.0, 544.0, 22.0, 140.0 ],
									"rnbo_classname" : "gain~",
									"rnbo_extra_attributes" : 									{
										"scale" : 7.943,
										"inc" : 1.072,
										"size" : 158.0,
										"order" : "",
										"preset" : 0
									}
,
									"rnbo_serial" : 1,
									"rnbo_uniqueid" : "gain~_obj-167",
									"scale" : 7.943,
									"size" : 158.0
								}

							}
, 							{
								"box" : 								{
									"id" : "obj-163",
									"maxclass" : "message",
									"numinlets" : 2,
									"numoutlets" : 1,
									"outlettype" : [ "" ],
									"patching_rect" : [ 273.5, 252.0, 29.5, 23.0 ],
									"rnbo_classname" : "message",
									"rnbo_extra_attributes" : 									{
										"text" : ""
									}
,
									"rnbo_serial" : 3,
									"rnbo_uniqueid" : "message_obj-163",
									"text" : "1"
								}

							}
, 							{
								"box" : 								{
									"id" : "obj-153",
									"maxclass" : "newobj",
									"numinlets" : 2,
									"numoutlets" : 1,
									"outlettype" : [ "" ],
									"patching_rect" : [ 370.0, 459.0, 40.0, 23.0 ],
									"rnbo_classname" : "metro",
									"rnbo_extra_attributes" : 									{
										"lock" : 0.0
									}
,
									"rnbo_serial" : 1,
									"rnbo_uniqueid" : "metro_obj-153",
									"text" : "metro"
								}

							}
, 							{
								"box" : 								{
									"format" : 0,
									"id" : "obj-152",
									"maxclass" : "number",
									"numinlets" : 1,
									"numoutlets" : 1,
									"outlettype" : [ "" ],
									"parameter_enable" : 0,
									"patching_rect" : [ 487.0, 116.0, 50.0, 23.0 ],
									"rnbo_classname" : "number",
									"rnbo_extra_attributes" : 									{
										"minimum" : "<none>",
										"maximum" : "<none>",
										"initialFormat" : "integer",
										"order" : "",
										"preset" : 0
									}
,
									"rnbo_serial" : 4,
									"rnbo_uniqueid" : "number_obj-152"
								}

							}
, 							{
								"box" : 								{
									"id" : "obj-148",
									"maxclass" : "toggle",
									"numinlets" : 1,
									"numoutlets" : 1,
									"outlettype" : [ "int" ],
									"parameter_enable" : 0,
									"patching_rect" : [ 248.75, 364.278571428571468, 24.0, 24.0 ],
									"rnbo_classname" : "toggle",
									"rnbo_extra_attributes" : 									{
										"order" : "",
										"preset" : 0
									}
,
									"rnbo_serial" : 1,
									"rnbo_uniqueid" : "toggle_obj-148"
								}

							}
, 							{
								"box" : 								{
									"id" : "obj-145",
									"maxclass" : "newobj",
									"numinlets" : 2,
									"numoutlets" : 1,
									"outlettype" : [ "" ],
									"patching_rect" : [ 248.75, 426.0, 40.0, 23.0 ],
									"rnbo_classname" : "metro",
									"rnbo_extra_attributes" : 									{
										"lock" : 0.0
									}
,
									"rnbo_serial" : 2,
									"rnbo_uniqueid" : "metro_obj-145",
									"text" : "metro"
								}

							}
, 							{
								"box" : 								{
									"id" : "obj-144",
									"maxclass" : "newobj",
									"numinlets" : 1,
									"numoutlets" : 1,
									"outlettype" : [ "" ],
									"patching_rect" : [ 487.0, 155.0, 43.0, 23.0 ],
									"rnbo_classname" : "tempo",
									"rnbo_serial" : 1,
									"rnbo_uniqueid" : "tempo_obj-144",
									"text" : "tempo"
								}

							}
, 							{
								"box" : 								{
									"id" : "obj-141",
									"maxclass" : "newobj",
									"numinlets" : 1,
									"numoutlets" : 1,
									"outlettype" : [ "signal" ],
									"patching_rect" : [ 370.0, 505.0, 39.0, 23.0 ],
									"rnbo_classname" : "click~",
									"rnbo_serial" : 1,
									"rnbo_uniqueid" : "click~_obj-141",
									"text" : "click~"
								}

							}
, 							{
								"box" : 								{
									"id" : "obj-112",
									"maxclass" : "newobj",
									"numinlets" : 2,
									"numoutlets" : 1,
									"outlettype" : [ "" ],
									"patching_rect" : [ 533.5, 414.0, 29.5, 23.0 ],
									"rnbo_classname" : "/",
									"rnbo_extra_attributes" : 									{
										"hot" : 0
									}
,
									"rnbo_serial" : 2,
									"rnbo_uniqueid" : "/_obj-112",
									"text" : "/ 2"
								}

							}
, 							{
								"box" : 								{
									"id" : "obj-105",
									"maxclass" : "newobj",
									"numinlets" : 2,
									"numoutlets" : 1,
									"outlettype" : [ "" ],
									"patching_rect" : [ 429.0, 312.0, 45.0, 23.0 ],
									"rnbo_classname" : "*",
									"rnbo_extra_attributes" : 									{
										"hot" : 0
									}
,
									"rnbo_serial" : 1,
									"rnbo_uniqueid" : "*_obj-105",
									"text" : "* 1000"
								}

							}
, 							{
								"box" : 								{
									"id" : "obj-96",
									"maxclass" : "newobj",
									"numinlets" : 2,
									"numoutlets" : 1,
									"outlettype" : [ "" ],
									"patching_rect" : [ 429.0, 278.0, 55.0, 23.0 ],
									"rnbo_classname" : "/",
									"rnbo_serial" : 3,
									"rnbo_uniqueid" : "/_obj-96",
									"text" : "/ @hot 1"
								}

							}
, 							{
								"box" : 								{
									"id" : "obj-95",
									"maxclass" : "newobj",
									"numinlets" : 2,
									"numoutlets" : 1,
									"outlettype" : [ "" ],
									"patching_rect" : [ 487.0, 235.0, 31.0, 23.0 ],
									"rnbo_classname" : "/",
									"rnbo_extra_attributes" : 									{
										"hot" : 0
									}
,
									"rnbo_serial" : 4,
									"rnbo_uniqueid" : "/_obj-95",
									"text" : "/ 60"
								}

							}
, 							{
								"box" : 								{
									"format" : 0,
									"id" : "obj-94",
									"maxclass" : "number",
									"numinlets" : 1,
									"numoutlets" : 1,
									"outlettype" : [ "" ],
									"parameter_enable" : 0,
									"patching_rect" : [ 487.0, 196.0, 50.0, 23.0 ],
									"rnbo_classname" : "number",
									"rnbo_extra_attributes" : 									{
										"minimum" : "<none>",
										"maximum" : "<none>",
										"initialFormat" : "integer",
										"order" : "",
										"preset" : 0
									}
,
									"rnbo_serial" : 5,
									"rnbo_uniqueid" : "number_obj-94"
								}

							}
, 							{
								"box" : 								{
									"id" : "obj-48",
									"maxclass" : "button",
									"numinlets" : 1,
									"numoutlets" : 1,
									"outlettype" : [ "bang" ],
									"parameter_enable" : 0,
									"patching_rect" : [ 157.0, 136.0, 24.0, 24.0 ],
									"rnbo_classname" : "button",
									"rnbo_serial" : 1,
									"rnbo_uniqueid" : "button_obj-48"
								}

							}
, 							{
								"box" : 								{
									"id" : "obj-31",
									"maxclass" : "button",
									"numinlets" : 1,
									"numoutlets" : 1,
									"outlettype" : [ "bang" ],
									"parameter_enable" : 0,
									"patching_rect" : [ 155.0, 459.0, 24.0, 24.0 ],
									"rnbo_classname" : "button",
									"rnbo_serial" : 2,
									"rnbo_uniqueid" : "button_obj-31"
								}

							}
, 							{
								"box" : 								{
									"id" : "obj-28",
									"maxclass" : "newobj",
									"numinlets" : 2,
									"numoutlets" : 1,
									"outlettype" : [ "signal" ],
									"patching_rect" : [ 120.0, 655.0, 33.0, 23.0 ],
									"rnbo_classname" : "*~",
									"rnbo_serial" : 1,
									"rnbo_uniqueid" : "*~_obj-28",
									"text" : "*~ 0."
								}

							}
, 							{
								"box" : 								{
									"id" : "obj-27",
									"maxclass" : "newobj",
									"numinlets" : 1,
									"numoutlets" : 0,
									"patching_rect" : [ 120.0, 722.0, 43.0, 23.0 ],
									"rnbo_classname" : "out~",
									"rnbo_extra_attributes" : 									{
										"meta" : "",
										"comment" : ""
									}
,
									"rnbo_serial" : 1,
									"rnbo_uniqueid" : "out~_obj-27",
									"rnboinfo" : 									{
										"needsInstanceInfo" : 1,
										"argnames" : 										{
											"in1" : 											{
												"attrOrProp" : 1,
												"digest" : "signal sent to outlet with index 1",
												"isalias" : 0,
												"aliases" : [  ],
												"settable" : 0,
												"attachable" : 0,
												"isparam" : 0,
												"deprecated" : 0,
												"inlet" : 1,
												"type" : "signal"
											}
,
											"index" : 											{
												"attrOrProp" : 2,
												"digest" : "outlet number",
												"defaultarg" : 1,
												"isalias" : 0,
												"aliases" : [  ],
												"settable" : 1,
												"attachable" : 0,
												"isparam" : 0,
												"deprecated" : 0,
												"type" : "number",
												"mandatory" : 1
											}
,
											"comment" : 											{
												"attrOrProp" : 2,
												"digest" : "mouse over comment",
												"isalias" : 0,
												"aliases" : [  ],
												"settable" : 1,
												"attachable" : 0,
												"isparam" : 0,
												"deprecated" : 0,
												"type" : "symbol"
											}
,
											"meta" : 											{
												"attrOrProp" : 2,
												"digest" : "A JSON formatted string containing metadata for use by the exported code",
												"isalias" : 0,
												"aliases" : [  ],
												"settable" : 1,
												"attachable" : 0,
												"isparam" : 0,
												"deprecated" : 0,
												"type" : "symbol",
												"defaultValue" : "",
												"label" : "Metadata",
												"displayorder" : 3
											}

										}
,
										"inputs" : [ 											{
												"name" : "in1",
												"type" : "signal",
												"digest" : "signal sent to outlet with index 1",
												"displayName" : "",
												"hot" : 1,
												"docked" : 0
											}
 ],
										"outputs" : [  ],
										"helpname" : "out~",
										"aliasOf" : "out~",
										"classname" : "out~",
										"operator" : 0,
										"versionId" : 374499139,
										"changesPatcherIO" : 1
									}
,
									"text" : "out~ 1"
								}

							}
, 							{
								"box" : 								{
									"id" : "obj-18",
									"maxclass" : "newobj",
									"numinlets" : 2,
									"numoutlets" : 2,
									"outlettype" : [ "signal", "signal" ],
									"patching_rect" : [ 120.0, 591.278571428571468, 66.0, 23.0 ],
									"rnbo_classname" : "cycle~",
									"rnbo_extra_attributes" : 									{
										"index" : "freq",
										"buffername" : "RNBODefaultSinus",
										"interp" : "linear"
									}
,
									"rnbo_serial" : 1,
									"rnbo_uniqueid" : "cycle~_obj-18",
									"text" : "cycle~ 100"
								}

							}
, 							{
								"box" : 								{
									"id" : "obj-36",
									"maxclass" : "message",
									"numinlets" : 2,
									"numoutlets" : 1,
									"outlettype" : [ "" ],
									"patching_rect" : [ 217.0, 591.278571428571468, 80.0, 23.0 ],
									"rnbo_classname" : "message",
									"rnbo_extra_attributes" : 									{
										"text" : ""
									}
,
									"rnbo_serial" : 4,
									"rnbo_uniqueid" : "message_obj-36",
									"text" : "0 0 1 5 0 200"
								}

							}
, 							{
								"box" : 								{
									"fontname" : "Lato",
									"fontsize" : 12.0,
									"id" : "obj-40",
									"maxclass" : "newobj",
									"numinlets" : 2,
									"numoutlets" : 2,
									"outlettype" : [ "signal", "" ],
									"patching_rect" : [ 217.0, 625.278571428571468, 113.0, 23.0 ],
									"rnbo_classname" : "line~",
									"rnbo_serial" : 1,
									"rnbo_uniqueid" : "foo[1]",
									"text" : "line~ 0.1 400",
									"varname" : "foo[1]"
								}

							}
 ],
						"lines" : [ 							{
								"patchline" : 								{
									"destination" : [ "obj-171", 0 ],
									"order" : 0,
									"source" : [ "obj-105", 0 ]
								}

							}
, 							{
								"patchline" : 								{
									"destination" : [ "obj-174", 0 ],
									"order" : 1,
									"source" : [ "obj-105", 0 ]
								}

							}
, 							{
								"patchline" : 								{
									"destination" : [ "obj-167", 0 ],
									"source" : [ "obj-141", 0 ]
								}

							}
, 							{
								"patchline" : 								{
									"destination" : [ "obj-94", 0 ],
									"source" : [ "obj-144", 0 ]
								}

							}
, 							{
								"patchline" : 								{
									"destination" : [ "obj-179", 1 ],
									"source" : [ "obj-145", 0 ]
								}

							}
, 							{
								"patchline" : 								{
									"destination" : [ "obj-145", 0 ],
									"order" : 1,
									"source" : [ "obj-148", 0 ]
								}

							}
, 							{
								"patchline" : 								{
									"destination" : [ "obj-153", 0 ],
									"order" : 0,
									"source" : [ "obj-148", 0 ]
								}

							}
, 							{
								"patchline" : 								{
									"destination" : [ "obj-144", 0 ],
									"source" : [ "obj-152", 0 ]
								}

							}
, 							{
								"patchline" : 								{
									"destination" : [ "obj-141", 0 ],
									"source" : [ "obj-153", 0 ]
								}

							}
, 							{
								"patchline" : 								{
									"destination" : [ "obj-165", 0 ],
									"source" : [ "obj-155", 0 ]
								}

							}
, 							{
								"patchline" : 								{
									"destination" : [ "obj-155", 0 ],
									"source" : [ "obj-161", 0 ]
								}

							}
, 							{
								"patchline" : 								{
									"destination" : [ "obj-163", 0 ],
									"source" : [ "obj-161", 1 ]
								}

							}
, 							{
								"patchline" : 								{
									"destination" : [ "obj-179", 0 ],
									"source" : [ "obj-163", 0 ]
								}

							}
, 							{
								"patchline" : 								{
									"destination" : [ "obj-179", 0 ],
									"source" : [ "obj-165", 0 ]
								}

							}
, 							{
								"patchline" : 								{
									"destination" : [ "obj-27", 0 ],
									"source" : [ "obj-167", 0 ]
								}

							}
, 							{
								"patchline" : 								{
									"destination" : [ "obj-112", 0 ],
									"order" : 0,
									"source" : [ "obj-171", 0 ]
								}

							}
, 							{
								"patchline" : 								{
									"destination" : [ "obj-190", 0 ],
									"order" : 1,
									"source" : [ "obj-171", 0 ]
								}

							}
, 							{
								"patchline" : 								{
									"destination" : [ "obj-153", 1 ],
									"source" : [ "obj-174", 0 ]
								}

							}
, 							{
								"patchline" : 								{
									"destination" : [ "obj-155", 1 ],
									"source" : [ "obj-176", 0 ]
								}

							}
, 							{
								"patchline" : 								{
									"destination" : [ "obj-31", 0 ],
									"source" : [ "obj-179", 0 ]
								}

							}
, 							{
								"patchline" : 								{
									"destination" : [ "obj-28", 0 ],
									"source" : [ "obj-18", 0 ]
								}

							}
, 							{
								"patchline" : 								{
									"destination" : [ "obj-145", 1 ],
									"source" : [ "obj-190", 0 ]
								}

							}
, 							{
								"patchline" : 								{
									"destination" : [ "obj-96", 0 ],
									"source" : [ "obj-196", 0 ]
								}

							}
, 							{
								"patchline" : 								{
									"destination" : [ "obj-27", 0 ],
									"source" : [ "obj-28", 0 ]
								}

							}
, 							{
								"patchline" : 								{
									"destination" : [ "obj-36", 0 ],
									"source" : [ "obj-31", 0 ]
								}

							}
, 							{
								"patchline" : 								{
									"destination" : [ "obj-40", 0 ],
									"source" : [ "obj-36", 0 ]
								}

							}
, 							{
								"patchline" : 								{
									"destination" : [ "obj-28", 1 ],
									"source" : [ "obj-40", 0 ]
								}

							}
, 							{
								"patchline" : 								{
									"destination" : [ "obj-161", 0 ],
									"source" : [ "obj-48", 0 ]
								}

							}
, 							{
								"patchline" : 								{
									"destination" : [ "obj-196", 0 ],
									"order" : 1,
									"source" : [ "obj-94", 0 ]
								}

							}
, 							{
								"patchline" : 								{
									"destination" : [ "obj-95", 0 ],
									"order" : 0,
									"source" : [ "obj-94", 0 ]
								}

							}
, 							{
								"patchline" : 								{
									"destination" : [ "obj-96", 1 ],
									"source" : [ "obj-95", 0 ]
								}

							}
, 							{
								"patchline" : 								{
									"destination" : [ "obj-105", 0 ],
									"source" : [ "obj-96", 0 ]
								}

							}
 ],
						"default_bgcolor" : [ 0.031372549019608, 0.125490196078431, 0.211764705882353, 1.0 ],
						"color" : [ 0.929412, 0.929412, 0.352941, 1.0 ],
						"elementcolor" : [ 0.357540726661682, 0.515565991401672, 0.861786782741547, 1.0 ],
						"accentcolor" : [ 0.343034118413925, 0.506230533123016, 0.86220508813858, 1.0 ],
						"stripecolor" : [ 0.258338063955307, 0.352425158023834, 0.511919498443604, 1.0 ],
						"bgfillcolor_type" : "color",
						"bgfillcolor_color" : [ 0.031372549019608, 0.125490196078431, 0.211764705882353, 1.0 ],
						"bgfillcolor_color1" : [ 0.031372549019608, 0.125490196078431, 0.211764705882353, 1.0 ],
						"bgfillcolor_color2" : [ 0.263682, 0.004541, 0.038797, 1.0 ],
						"bgfillcolor_angle" : 270.0,
						"bgfillcolor_proportion" : 0.39,
						"bgfillcolor_autogradient" : 0.0
					}
,
					"patching_rect" : [ 220.0, 92.0, 146.0, 22.0 ],
					"rnboattrcache" : 					{

					}
,
					"rnboversion" : "1.2.3",
					"saved_attribute_attributes" : 					{
						"valueof" : 						{
							"parameter_invisible" : 1,
							"parameter_longname" : "rnbo~",
							"parameter_shortname" : "rnbo~",
							"parameter_type" : 3
						}

					}
,
					"saved_object_attributes" : 					{
						"optimization" : "O1",
						"parameter_enable" : 1,
						"uuid" : "7dd0dcc9-acf1-11ee-9cc9-acde48001122"
					}
,
					"snapshot" : 					{
						"filetype" : "C74Snapshot",
						"version" : 2,
						"minorversion" : 0,
						"name" : "snapshotlist",
						"origin" : "rnbo~",
						"type" : "list",
						"subtype" : "Undefined",
						"embed" : 1,
						"snapshot" : 						{
							"__presetid" : "autoquantize"
						}
,
						"snapshotlist" : 						{
							"current_snapshot" : 0,
							"entries" : [ 								{
									"filetype" : "C74Snapshot",
									"version" : 2,
									"minorversion" : 0,
									"name" : "untitled",
									"origin" : "autoquantize",
									"type" : "rnbo",
									"subtype" : "",
									"embed" : 0,
									"snapshot" : 									{
										"__presetid" : "autoquantize"
									}
,
									"fileref" : 									{
										"name" : "untitled",
										"filename" : "untitled_20240106.maxsnap",
										"filepath" : "~/Documents/Max 8/Snapshots",
										"filepos" : -1,
										"snapshotfileid" : "dfd1e5a0f3f0a4d728f7a70aefaae6ee"
									}

								}
 ]
						}

					}
,
					"text" : "rnbo~ @title autoquantize",
					"varname" : "rnbo~"
				}

			}
 ],
		"lines" : [ 			{
				"patchline" : 				{
					"destination" : [ "obj-4", 1 ],
					"order" : 0,
					"source" : [ "obj-1", 0 ]
				}

			}
, 			{
				"patchline" : 				{
					"destination" : [ "obj-4", 0 ],
					"order" : 1,
					"source" : [ "obj-1", 0 ]
				}

			}
, 			{
				"patchline" : 				{
					"destination" : [ "obj-5", 0 ],
					"source" : [ "obj-2", 0 ]
				}

			}
, 			{
				"patchline" : 				{
					"destination" : [ "obj-16", 0 ],
					"order" : 1,
					"source" : [ "obj-5", 0 ]
				}

			}
, 			{
				"patchline" : 				{
					"destination" : [ "obj-27", 0 ],
					"order" : 0,
					"source" : [ "obj-5", 0 ]
				}

			}
 ],
		"parameters" : 		{
			"obj-1" : [ "rnbo~", "rnbo~", 0 ],
			"parameterbanks" : 			{
				"0" : 				{
					"index" : 0,
					"name" : "",
					"parameters" : [ "-", "-", "-", "-", "-", "-", "-", "-" ]
				}

			}
,
			"inherited_shortname" : 1
		}
,
		"dependency_cache" : [ 			{
				"name" : "untitled_20240106.maxsnap",
				"bootpath" : "~/Documents/Max 8/Snapshots",
				"patcherrelativepath" : "../../../Documents/Max 8/Snapshots",
				"type" : "mx@s",
				"implicit" : 1
			}
 ],
		"autosave" : 0
	}

}
